<?xml version="1.0" encoding="UTF-8" ?>
<!DOCTYPE svg PUBLIC "-//W3C//DTD SVG 1.1//EN" "http://www.w3.org/Graphics/SVG/1.1/DTD/svg11.dtd">
<svg width="64pt" height="64pt" viewBox="0 0 64 64" version="1.1" xmlns="http://www.w3.org/2000/svg">
<path fill="#ffffff" d=" M 0.00 0.00 L 64.00 0.00 L 64.00 64.00 L 0.00 64.00 L 0.00 0.00 Z" />
<path fill="#ed202a" d=" M 19.43 7.37 C 27.78 2.84 38.55 3.23 46.51 8.43 C 55.70 14.25 60.75 25.93 58.33 36.60 C 56.15 47.52 46.69 56.13 35.76 57.85 C 35.75 56.85 35.73 54.84 35.72 53.84 C 41.82 52.57 47.53 49.22 51.07 44.02 C 56.21 36.61 56.31 26.07 51.36 18.55 C 47.18 12.17 39.68 8.04 32.03 8.18 C 24.61 8.05 17.39 11.99 13.14 18.01 C 7.11 26.53 7.93 39.21 15.26 46.71 C 18.83 50.61 23.79 52.87 28.91 53.93 C 28.91 55.24 28.91 56.54 28.92 57.85 C 22.53 56.84 16.34 53.93 12.10 48.95 C 6.74 42.99 4.16 34.54 5.61 26.62 C 6.99 18.56 12.17 11.19 19.43 7.37 Z" />
<path fill="#54b256" d=" M 16.46 21.54 C 20.45 14.64 29.25 11.12 36.90 13.31 C 45.04 15.34 50.98 23.55 50.54 31.90 C 50.32 40.35 43.68 47.50 35.63 49.44 C 35.62 48.11 35.60 46.78 35.59 45.45 C 41.15 43.65 46.02 39.00 46.57 32.95 C 47.71 25.63 42.28 18.25 35.06 16.89 C 26.83 14.91 17.93 21.59 17.56 30.06 C 16.80 37.24 22.21 43.61 28.90 45.51 C 28.90 46.82 28.89 48.12 28.89 49.43 C 24.32 48.16 19.87 45.83 17.19 41.78 C 12.91 35.98 12.58 27.63 16.46 21.54 Z" />
<path fill="#353795" d=" M 22.53 34.69 C 20.11 28.80 24.74 21.57 30.99 20.94 C 37.23 19.95 43.22 25.77 42.59 32.02 C 42.44 36.23 39.26 39.41 35.79 41.35 C 35.72 40.07 35.66 38.79 35.61 37.51 C 37.44 35.78 39.37 33.68 38.95 30.94 C 39.18 25.27 31.20 22.31 27.47 26.48 C 24.08 29.61 25.45 34.92 28.86 37.42 C 28.85 38.73 28.84 40.04 28.82 41.35 C 26.17 39.75 23.49 37.78 22.53 34.69 Z" />
<path fill="#231f20" d=" M 30.36 31.09 C 31.64 31.11 32.91 31.14 34.19 31.16 C 34.13 40.73 34.10 50.30 34.17 59.87 C 32.93 59.89 31.69 59.92 30.45 59.94 C 30.42 50.32 30.35 40.71 30.36 31.09 Z" />
</svg>
